<?xml version="1.0" standalone="no"?><!DOCTYPE svg PUBLIC "-//W3C//DTD SVG 1.1//EN" "http://www.w3.org/Graphics/SVG/1.1/DTD/svg11.dtd"><svg t="1604019336233" class="icon" viewBox="0 0 1024 1024" version="1.1" xmlns="http://www.w3.org/2000/svg" p-id="3420" xmlns:xlink="http://www.w3.org/1999/xlink" width="32" height="32"><defs><style type="text/css"></style></defs><path d="M955.1 466.6c-5.5-8.4-14.9-13.4-24.9-13.4H625.5V181.8c0-47.3-38.4-85.8-85.6-85.8h-55.8c-47.2 0-85.6 38.5-85.6 85.8v161.7c0 0.7 0 1.4 0.1 2.1 0 0.4 1.9 40.2-26.3 70.5-23 24.7-60.4 37.2-111.2 37.2H64V928h698.9c11.9 0 22.7-7.1 27.5-18.1l167.3-415c3.8-9.3 2.9-19.9-2.6-28.3zM123.7 513h107.5v355.4H123.7V513z m619.5 355.2H291V511.7c53.6-4.9 95.5-23.3 125-54.9 43-46.2 42.7-104.2 42.3-114.1v-161c0-14.3 11.6-25.9 25.9-25.9H540c14.3 0 25.9 11.6 25.9 25.9v273.4h2V513H885L743.2 868.2z" fill="#ffffff" p-id="3421"></path></svg>